<svg width="200" height="110" viewBox="0 0 205 110" fill="none" xmlns="http://www.w3.org/2000/svg">
<rect x="42.4824" y="73.6323" width="36.0697" height="36.0697" rx="3.88102" fill="#FFD954"/>
<path d="M52.8301 100.845H57.1584V90.048L63.4346 100.845H68.1958V83.6516H63.8915V93.3424L58.3848 83.6516H52.8301V100.845Z" fill="black"/>
<rect x="84.5625" y="67.6206" width="36.0697" height="36.0697" rx="3.88102" fill="#FFD954"/>
<path d="M96.8965 94.8331H109.16V91.0338H101.802V87.9077H107.357V84.397H101.802V81.4392H108.775V77.6399H96.8965V94.8331Z" fill="black"/>
<rect x="126.645" y="61.6091" width="36.0697" height="36.0697" rx="3.88102" fill="#FFD954"/>
<path d="M137.031 88.8217H141.84L144.509 77.9046L147.154 88.8217H152.3L156.316 71.6284H151.747L149.415 82.4493L146.914 71.6284H142.537L140.229 82.3532L138.017 71.6284H133.039L137.031 88.8217Z" fill="black"/>
<rect x="42.4824" y="73.6323" width="36.0697" height="36.0697" rx="3.88102" fill="#822AF0"/>
<path d="M52.8301 100.845H57.1584V90.048L63.4346 100.845H68.1958V83.6516H63.8915V93.3424L58.3848 83.6516H52.8301V100.845Z" fill="white"/>
<rect x="84.5625" y="67.6206" width="36.0697" height="36.0697" rx="3.88102" fill="#822AF0"/>
<path d="M96.8965 94.8331H109.16V91.0338H101.802V87.9077H107.357V84.397H101.802V81.4392H108.775V77.6399H96.8965V94.8331Z" fill="white"/>
<rect x="126.645" y="61.6091" width="36.0697" height="36.0697" rx="3.88102" fill="#822AF0"/>
<path d="M137.031 88.8217H141.84L144.509 77.9046L147.154 88.8217H152.3L156.316 71.6284H151.747L149.415 82.4493L146.914 71.6284H142.537L140.229 82.3532L138.017 71.6284H133.039L137.031 88.8217Z" fill="white"/>
<path d="M79.1689 46.204C78.1923 47.6482 76.8621 48.5037 75.2589 48.8728C74.279 49.0623 72.8971 49.0307 70.8277 48.5331C69.7261 51.497 68.3957 54.2059 65.5768 59.1165C62.7801 64.1427 59.9214 66.3699 56.2491 64.3881C53.4153 62.7227 52.7061 60.2884 52.1006 57.7735C51.6969 55.9977 51.913 54.6396 51.3941 54.7399C50.7604 54.8623 50.8472 55.6234 50.0884 57.2656C48.7562 60.2738 47.4983 62.4306 46.566 64.106C45.0851 66.9643 42.6185 69.0556 39.6623 66.7557C37.8288 65.3158 37.2099 63.0439 36.8086 60.9679C34.7366 50.2446 35.2495 47.6342 38.3617 31.2443C38.708 29.3232 39.0568 27.1032 39.2722 25.7452C39.7972 22.8927 40.8508 22.151 43.6857 23.5171C46.7627 24.8954 46.4173 24.9624 45.9255 27.9883C42.8609 45.8641 42.1802 47.9094 43.3552 54.9186C43.5534 56.2557 43.5064 58.1786 44.2429 58.2756C45.0256 58.3044 46.4493 55.4571 47.2549 53.7468C48.4832 50.8178 49.2241 48.4619 49.6243 41.8662C50.276 39.0493 50.3953 36.5743 53.3311 26.0793C53.549 24.4225 54.3001 23.9779 56.7273 24.4661C59.7968 25.1885 60.2815 26.7689 59.9428 29.3466C57.2688 42.1235 57.1581 44.9557 57.9088 51.6288C58.3473 55.1327 58.7018 57.2769 59.7948 57.3646C61.1522 57.5808 62.4563 55.3551 63.5077 53.0595C66.4738 46.7447 67.0821 45.2521 66.4536 44.4757C65.6081 43.5027 65.0971 42.4055 64.8965 41.3678C64.4526 38.762 64.5778 37.2429 65.609 32.6776C66.3711 28.8819 66.959 26.9742 67.9006 25.656C69.1083 24.1668 71.2074 23.5811 72.7323 24.6628C74.441 25.7684 74.3847 27.3335 74.1369 30.0729C73.68 34.8263 73.3607 39.6724 72.2566 42.9358C73.0841 43.1944 73.8556 43.1648 74.479 42.9851C75.4588 42.7956 76.049 42.4426 78.1245 40.1873C78.7035 39.7764 78.9433 40.0887 79.179 41.0004C79.9879 44.2514 80.1547 45.1163 79.1689 46.204Z" fill="black"/>
<path d="M104.633 49.762C103.384 51.1567 102.704 51.8898 100.417 54.4767C99.2622 55.6825 98.2479 56.5754 97.3147 56.6893C96.441 56.7959 95.8595 56.3937 94.9574 55.7939C93.4097 54.7406 92.7642 53.8137 92.5792 52.2982C92.4311 50.6007 92.504 47.8115 92.7701 44.1704L93.528 38.7538C92.0652 40.8247 90.4043 43.6895 89.4074 45.7049C87.2099 49.9951 85.6252 53.9746 84.3319 57.9185C83.964 59.2656 83.4749 59.6204 82.2096 58.9473C79.5551 57.5558 79.3403 56.2806 78.5661 49.4538C77.922 43.2033 78.0851 39.6931 79.1906 35.1806C79.8613 32.4367 79.877 32.0805 81.487 26.8549C83.4284 20.4663 84.6108 17.0684 85.1246 15.4676C85.4401 14.66 85.841 14.5519 86.4012 14.7793C87.4412 15.0664 89.0207 15.406 90.0543 15.6348C91.0225 15.8124 90.9551 16.7086 90.6674 17.7494C88.5427 25.0478 86.0655 32.8617 85.0233 38.3722C84.2845 42.0118 84.2337 44.5033 84.4813 47.0161C85.8528 43.7134 87.5955 40.5435 89.2571 37.6786C90.8811 34.9958 92.2854 32.9313 93.967 30.7147C95.0275 29.2253 96.3752 29.1193 98.3976 29.7006C100.699 30.1302 101.075 30.7935 101.027 32.3374C101.024 33.2843 100.462 36.4284 99.734 41.1322C99.3916 43.6579 99.1275 46.8254 99.0767 49.3169C100.596 47.7116 102.753 45.023 103.616 43.8528C104.683 42.4204 104.893 42.6911 105.4 43.9301C106.557 47.1017 106.176 47.8581 104.633 49.762Z" fill="black"/>
<path d="M130.872 46.1445C128.06 48.7949 126.154 50.6248 124.664 51.9892C123.875 52.796 122.934 53.325 121.943 53.446C121.185 53.5385 120.457 53.39 119.621 52.8421C118.778 52.2352 118.359 51.2215 118.209 49.9974C118.096 49.0655 118.206 48.5195 117.623 48.5907C117.274 48.6334 117.083 49.0109 116.118 50.3119C114.736 52.0778 113.874 53.2479 113.464 53.7711C111.724 55.9949 110.486 56.0277 108.446 53.8513C106.804 52.5137 105.51 51.6068 104.991 47.3518C104.301 41.6985 104.572 38.5892 106.235 35.2509C109.472 28.8218 112.985 25.6133 119.146 23.2639C121.239 22.476 121.493 22.6224 122.349 23.8194C122.922 24.6368 123.212 25.074 123.588 26.2119C124.129 27.7431 123.706 28.149 121.839 28.8501C116.363 30.9975 113.595 33.9975 111.915 38.1661C110.815 40.785 110.258 42.0361 110.549 44.4253C110.635 45.1254 110.851 45.9265 111.147 46.4227C111.474 47.1526 111.844 47.2842 112.077 47.2557C112.609 47.25 113.004 46.6102 113.516 45.9561C115.023 43.7609 114.841 43.7239 117.846 39.2752C119.376 36.7813 120.484 33.748 121.776 30.2776C122.217 29.0406 122.421 28.7791 123.535 28.7022C124.344 28.5443 125.153 28.3864 126.144 28.2654C127.492 28.1601 127.802 29.2462 127.462 30.8257C126.571 34.1881 125.902 36.4586 124.98 40.534C124.464 42.6083 124.175 44.1225 123.945 45.6301L129.779 40.5995C130.736 39.713 131.188 39.5402 131.601 40.4955C132.643 43.2071 132.61 44.3943 130.872 46.1445Z" fill="black"/>
<path d="M145.178 45.5901C145.167 45.3004 145.146 45.0105 145.116 44.7224C145.087 44.4349 145.048 44.1479 144.998 43.8629C144.977 43.7424 144.954 43.6223 144.929 43.5023C144.924 43.478 144.891 43.3375 144.87 43.246C144.844 43.1584 144.806 43.0239 144.799 43.0006C144.758 42.8731 144.715 42.746 144.667 42.6207C144.582 42.3964 144.469 42.1864 144.377 41.9657C144.372 41.9516 144.372 41.9482 144.368 41.9386C144.354 41.9208 144.343 41.9067 144.322 41.8796C144.263 41.7982 144.208 41.7148 144.146 41.635C144.06 41.5251 143.751 41.2765 144.113 41.5704C144.042 41.5119 143.968 41.449 143.901 41.3866C143.886 41.3736 143.879 41.3664 143.868 41.3563C143.795 41.3336 143.701 41.2852 143.639 41.2504C143.558 41.2469 143.475 41.2356 143.391 41.2242C143.357 41.2244 143.322 41.2267 143.295 41.232C143.224 41.2467 142.98 41.3095 142.979 41.3008C142.747 41.383 142.52 41.4732 142.296 41.5831C142.173 41.6439 142.044 41.6765 141.913 41.6958C140.187 43.1065 138.421 44.4319 136.897 45.5859C136.446 42.8606 136.818 40.094 138.204 34.4831C138.713 32.3504 139.198 30.5165 139.633 28.7485C141.076 28.4541 142.759 28.1894 143.925 28.0471C145.033 27.9119 145.652 27.6581 145.597 26.7183C145.636 26.0629 145.814 24.6221 145.562 23.5288C145.463 22.7128 145.165 22.69 144.406 22.7826C143.824 22.8537 142.498 23.1339 141.105 23.363C141.664 21.6384 142.194 19.6814 142.863 17.4109C143.025 16.7995 142.742 16.42 142.306 16.236C141.324 15.9425 139.62 15.5582 138.594 15.3877C138.034 15.1603 137.574 15.2755 137.252 16.0248C136.804 17.2034 135.93 19.7348 134.35 24.7195L131.632 25.2294C130.524 25.3646 130.093 25.7123 129.96 26.5575C129.912 27.6281 129.879 29.2885 130.19 29.9013C130.4 30.6448 130.8 30.5367 131.266 30.4798L132.702 30.1271C131.282 34.9737 130.92 36.8518 130.589 40.441C130.27 45.0942 130.184 49.7196 132.531 51.5028C133.898 52.5198 134.639 52.7836 135.222 52.7124C136.505 52.5558 137.279 51.6338 138.746 50.5667C141.653 48.5151 143.721 46.9041 145.178 45.5901Z" fill="black"/>
<path d="M152.583 9.67853C152.742 14.8743 152.272 19.1412 151.537 22.742C151.407 23.3811 150.909 23.9951 150.215 24.3992C148.629 25.3208 146.774 24.7674 146.718 23.3545C146.561 19.3967 146.039 16.1558 145.253 12.3145C145.081 11.4789 145.649 10.5257 146.639 9.97525L149.138 8.58585C150.726 7.70433 152.54 8.27874 152.583 9.67853Z" fill="black"/>
<path d="M153.873 49.4884C151.437 47.9519 150.746 45.1974 150.173 41.9546C149.841 40.693 149.612 39.3019 149.609 37.8233C149.67 36.8693 149.963 36.3603 151.055 36.582C152.576 36.9288 153.486 37.1127 154.396 37.2981C154.826 37.4232 155.32 37.5995 155.412 38.3572C155.519 39.2315 155.626 40.1065 155.82 41.2061C156.106 43.0636 156.929 45.4483 158.926 44.849C159.677 44.6981 160.153 43.7527 160.411 42.9522C160.674 42.2101 160.764 41.4892 160.672 40.7315C160.407 39.0483 159.735 37.4148 158.245 35.8811C156.692 34.296 155.682 33.2953 153.981 31.9648C151.961 30.4368 151.196 28.0456 152.055 25.3976C153.269 21.2859 157.34 18.777 159.905 18.4638C161.713 18.2432 163.336 18.4591 164.863 19.3376C165.568 19.7839 165.953 20.0326 166.053 20.8487C166.253 22.0073 166.323 23.0636 166.379 24.0033C166.339 25.1322 165.442 25.5375 164.62 25.1054C162.883 23.9569 161.844 23.1963 160.962 23.2448C159.498 23.3638 158.119 24.1834 157.982 25.9748C157.904 27.759 159.345 28.4114 161.256 30.012C164.714 33.1393 166.507 35.2275 167.033 39.5408C167.339 42.0472 165.419 46.186 163.775 47.7465C162.505 48.9665 160.753 50.1268 159.18 50.3189C156.739 50.6766 154.898 50.133 153.873 49.4884Z" fill="black"/>
<path d="M11.0963 1.29166C12.6495 2.92093 14.0343 4.34942 15.3957 5.80356C18.4319 9.04493 21.437 12.3205 24.5203 15.5187C24.962 15.9767 26.0598 16.4695 26.3531 16.2595C27.1179 15.7042 27.1223 14.7917 26.3402 14.0387C22.3176 10.1398 18.3183 6.21521 14.2641 2.3423C12.803 0.946006 12.5279 0.922045 11.0963 1.29166Z" fill="black"/>
<path d="M24.3918 22.0405C24.9481 20.2923 24.4858 19.4629 23.0624 18.8217C19.973 17.4197 16.9732 15.8253 13.9327 14.3269C13.3765 14.0542 12.8054 13.7209 12.2086 13.6383C11.6817 13.5647 11.1111 13.796 10.5593 13.8954C10.8366 14.3365 11.008 14.9708 11.4065 15.1935C14.8826 17.1052 18.4002 18.9373 21.9107 20.7942C22.6892 21.1915 23.4794 21.5759 24.3918 22.0405Z" fill="black"/>
<path d="M12.8927 25.2179C13.5185 25.5855 14.109 26.0774 14.7816 26.2996C16.6905 26.9141 18.6168 27.4582 20.5683 27.9234C20.9237 28.005 21.3968 27.6065 21.8184 27.4272C21.6095 26.9624 21.4966 26.17 21.1859 26.0822C18.9325 25.4511 16.6516 24.9359 14.3597 24.4498C13.955 24.3623 13.4866 24.5928 13.0444 24.6749C12.9953 24.8572 12.9418 25.0356 12.8927 25.2179Z" fill="black"/>
<path d="M193.904 1.29166C192.35 2.92093 190.966 4.34942 189.604 5.80356C186.568 9.04493 183.563 12.3205 180.48 15.5187C180.038 15.9767 178.94 16.4695 178.647 16.2595C177.882 15.7042 177.878 14.7917 178.66 14.0387C182.682 10.1398 186.682 6.21521 190.736 2.3423C192.197 0.946006 192.472 0.922045 193.904 1.29166Z" fill="black"/>
<path d="M180.608 22.0405C180.052 20.2923 180.514 19.4629 181.938 18.8217C185.027 17.4197 188.027 15.8253 191.067 14.3269C191.623 14.0542 192.195 13.7209 192.791 13.6383C193.318 13.5647 193.889 13.796 194.441 13.8954C194.163 14.3365 193.992 14.9708 193.594 15.1935C190.117 17.1052 186.6 18.9373 183.089 20.7942C182.311 21.1915 181.521 21.5759 180.608 22.0405Z" fill="black"/>
<path d="M192.107 25.2179C191.481 25.5855 190.891 26.0774 190.218 26.2996C188.309 26.9141 186.383 27.4582 184.432 27.9234C184.076 28.005 183.603 27.6065 183.182 27.4272C183.39 26.9624 183.503 26.17 183.814 26.0822C186.067 25.4511 188.348 24.9359 190.64 24.4498C191.045 24.3623 191.513 24.5928 191.956 24.6749C192.005 24.8572 192.058 25.0356 192.107 25.2179Z" fill="black"/>
</svg>
